<svg width="100" height="100" viewBox="0 0 100 100" fill="none" xmlns="http://www.w3.org/2000/svg">
<g id="Ic_Local-Filled">
<g id="Vector">
<path d="M40.6676 82.9998L17.6676 85.9998L14.1676 69.4998L31.6676 66.4998L40.6676 82.9998Z" fill="#9EA3B5"/>
<path d="M90.6677 81.4998L69.6677 83.9998L66.1677 67.4998L81.6677 64.9998L90.6677 81.4998Z" fill="#9EA3B5"/>
<path d="M41.1934 72.8807L40.1675 73L48.6675 88L65.1675 87L61.7004 70.655C60.9375 71.3454 60.2018 71.9885 59.5051 72.5813C54.201 77.0951 46.5991 77.1949 41.1934 72.8807Z" fill="#9EA3B5"/>
<path fill-rule="evenodd" clip-rule="evenodd" d="M56.2647 68.7735C63.9496 62.2338 76.1676 49.6413 76.1676 35.6818C76.1676 28.738 73.4284 22.0785 68.5524 17.1685C63.6765 12.2584 57.0633 9.5 50.1676 9.5C43.272 9.5 36.6588 12.2584 31.7829 17.1685C26.9069 22.0785 24.1676 28.738 24.1676 35.6818C24.1676 49.6413 36.3857 62.2338 44.0706 68.7735C47.6268 71.7997 52.7085 71.7997 56.2647 68.7735ZM62.1676 35.5C62.1676 42.1274 56.7951 47.5 50.1676 47.5C43.5402 47.5 38.1676 42.1274 38.1676 35.5C38.1676 28.8726 43.5402 23.5 50.1676 23.5C56.7951 23.5 62.1676 28.8726 62.1676 35.5Z" fill="#9EA3B5"/>
</g>
</g>
</svg>
